# xmcd
#
# Track frame offsets:
# 150
# 11580
# 36780
# 50030
# 75765
# 85835
# 95215
# 103135
# 111695
# 126545
# 134305
# 143530
# 152670
# 184255
# 199455
# 203310
# 207105
# 212600
# 248755
#
# Disc length: 3650 seconds
#
#
# Revision: 0
# Processed by: cddbd v1.5.2PL0 Copyright (c) Steve Scherf et al.
# Submitted via: FreeRIP 2.945 
#
DISCID=0f0e4013
DTITLE=Charles E. Cullen - Where Did All The Flies Come From?
DYEAR=1900
DGENRE=folk/rock/country/cheese
TTITLE0=Blood On The Microphone
TTITLE1=Something Strange Inside Me Moved
TTITLE2=My Tremblin' Hands
TTITLE3=Travelin' On One Leg
TTITLE4=The Day Charles Cullen Died
TTITLE5=You Look Good In Black And Blue
TTITLE6=The Spanish Witch
TTITLE7=Wrong Side Of Town
TTITLE8=The Bright Young Girl From Michigan
TTITLE9=Lord Bring My Body Home
TTITLE10=Love You Enough To Leave You
TTITLE11=The Village Is Surrounded By Monkeys
TTITLE12=Trash In My Pocket
TTITLE13=Livin' In Da Weldin' Shop
TTITLE14=Johnboat
TTITLE15=I Don't Really Like Her, But She Helps Out On The Farm
TTITLE16=Broken Wash Rag
TTITLE17=Where'd ALl The Flies Come From
TTITLE18=Movin' On
EXTD=
EXTT0=
EXTT1=
EXTT2=
EXTT3=
EXTT4=
EXTT5=
EXTT6=
EXTT7=
EXTT8=
EXTT9=
EXTT10=
EXTT11=
EXTT12=
EXTT13=
EXTT14=
EXTT15=
EXTT16=
EXTT17=
EXTT18=
PLAYORDER=
